<svg width="580" height="351" viewBox="0 0 580 351" fill="none" xmlns="http://www.w3.org/2000/svg">
<g opacity="0.36" clip-path="url(#clip0_4092_14475)">
<path d="M216.558 1203.44C390.381 1154.19 481.092 1084.83 488.695 995.349C500.097 861.13 413.138 614.61 492.261 438.05C571.383 261.496 334.429 27.6023 95.7127 113.778C-143.004 199.953 -517.16 319.681 -289.46 799.446C-137.659 1119.29 31.011 1253.96 216.558 1203.44Z" fill="#0074CC"/>
<path d="M196.529 1185.41C361.063 1138.76 446.937 1073.1 454.154 988.442C464.978 861.449 382.73 628.232 457.661 461.156C532.591 294.085 308.371 72.8622 82.4074 154.472C-143.557 236.083 -497.721 349.481 -282.318 803.336C-138.715 1105.91 20.8982 1233.27 196.529 1185.41Z" fill="#005BA9"/>
<path d="M176.77 1167.95C332.028 1123.93 413.063 1061.97 419.875 982.089C430.093 862.261 352.489 642.207 423.2 484.556C493.911 326.909 282.34 118.179 69.1141 195.193C-144.112 272.207 -478.311 379.222 -275.067 807.458C-139.569 1092.95 11.0404 1213.12 176.77 1167.95Z" fill="#00488A"/>
<path d="M156.525 1150.04C302.378 1108.73 378.49 1050.52 384.865 975.437C394.427 862.806 321.448 655.928 387.831 507.77C454.215 359.616 255.376 163.324 55.0727 235.625C-145.23 307.926 -459.179 408.374 -268.094 810.992C-140.702 1079.41 0.834948 1192.42 156.525 1150.04Z" fill="#003669"/>
<path d="M136.766 1132.58C273.343 1093.89 344.616 1039.39 350.587 969.083C359.542 863.618 291.207 669.903 353.371 531.169C415.535 392.439 229.345 208.64 41.7795 276.345C-145.786 344.05 -439.769 438.114 -260.842 815.113C-141.557 1066.45 -9.0228 1172.27 136.766 1132.58Z" fill="#003669"/>
<path d="M116.737 1114.56C244.025 1078.47 310.461 1027.67 316.046 962.178C324.423 863.936 260.799 683.525 318.771 554.275C376.743 425.029 203.287 253.901 28.4742 317.04C-146.338 380.18 -420.33 467.915 -253.7 819.005C-142.613 1053.07 -19.1356 1151.58 116.737 1114.56Z" fill="#002549"/>
</g>
<defs>
<clipPath id="clip0_4092_14475">
<rect width="351" height="580" fill="white" transform="translate(580) rotate(90)"/>
</clipPath>
</defs>
</svg>
